<svg xmlns="http://www.w3.org/2000/svg" version="1.1" xmlns:xlink="http://www.w3.org/1999/xlink" xmlns:svgjs="http://svgjs.dev/svgjs" width="1000" height="1000"><g clip-path="url(#SvgjsClipPath1663)"><rect width="1000" height="1000" fill="#051727"></rect><g transform="matrix(5.223880597014926,0,0,5.223880597014926,150,272.76119402985074)"><svg xmlns="http://www.w3.org/2000/svg" version="1.1" xmlns:xlink="http://www.w3.org/1999/xlink" xmlns:svgjs="http://svgjs.dev/svgjs" width="134.90782mm" height="87.109077mm"><svg width="134.90782mm" height="87.109077mm" viewBox="0 0 134.90782 87.109077" version="1.1" id="svg1" xml:space="preserve" sodipodi:docname="weather-forecast-logo.svg" inkscape:version="1.4 (e7c3feb1, 2024-10-09)" xmlns:inkscape="http://www.inkscape.org/namespaces/inkscape" xmlns:sodipodi="http://sodipodi.sourceforge.net/DTD/sodipodi-0.dtd" xmlns="http://www.w3.org/2000/svg" xmlns:svg="http://www.w3.org/2000/svg"><sodipodi:namedview id="namedview1" pagecolor="#505050" bordercolor="#eeeeee" borderopacity="1" inkscape:showpageshadow="0" inkscape:pageopacity="0" inkscape:pagecheckerboard="0" inkscape:deskcolor="#505050" inkscape:document-units="mm" showguides="true" inkscape:zoom="0.63559753" inkscape:cx="7.8666133" inkscape:cy="151.82564" inkscape:window-width="1856" inkscape:window-height="1186" inkscape:window-x="2854" inkscape:window-y="25" inkscape:window-maximized="0" inkscape:current-layer="weather-forecast-logo"></sodipodi:namedview><defs id="defs1"><clipPath id="SvgjsClipPath1663"><rect width="1000" height="1000" x="0" y="0" rx="350" ry="350"></rect></clipPath></defs><g id="weather-forecast-logo" transform="translate(-47.076651,-35.241195)"><g id="sun" transform="matrix(1.1883682,0,0,1.1836613,-8.8677449,-6.4724436)"><path style="fill:#ffa102;stroke:none" d="M 49.457902,86.305776 62.687068,85.776609 59.776652,77.574526 Z" id="path3508"></path><path style="fill:#ffa102;stroke:none" d="m 47.076652,66.991194 12.170833,6.085416 1.322917,-8.73125 z" id="path3280" sodipodi:nodetypes="cccc"></path><path style="fill:#ffa102;stroke:none" d="m 106.34332,59.318277 2.38125,4.7625 2.11666,-5.027083 z" id="path3195"></path><path style="fill:#ffa102;stroke:none" d="m 55.014152,48.999528 7.14375,11.377083 5.55625,-7.14375 z" id="path2961"></path><path style="fill:#ffa102;stroke:none" d="m 107.93082,42.914111 -11.112502,7.14375 6.879162,5.55625 c 1.66868,-3.834424 3.8394,-8.517665 4.23334,-12.7 z" id="path2885"></path><path style="fill:#ffa102;stroke:none" d="m 70.889151,37.357861 0.264584,13.229167 8.466666,-2.910417 z" id="path2853"></path><path style="fill:#ffa102;stroke:none" d="m 90.203734,35.241195 -6.349999,11.906249 1.426096,0.20972 7.569737,1.113197 z" id="path2843" sodipodi:nodetypes="ccccc"></path><path style="fill:#ffa102;stroke:none" d="m 70.359985,87.099526 c 3.087085,-0.863448 6.071318,-1.215397 9.260416,-0.79375 1.293373,-13.296886 12.282083,-20.347925 24.870829,-16.933333 -0.48477,-2.927449 -1.52168,-5.737646 -3.19731,-8.202002 -12.058029,-17.733825 -40.810419,-5.658755 -36.469535,15.345752 0.854226,4.133396 2.938996,7.336224 5.5356,10.583333 z" id="core" sodipodi:nodetypes="cccssc"></path></g><path style="fill:#0d3b61;stroke:none" d="M 108.1954,76.25161 C 97.283555,70.569673 85.397144,77.081085 84.647484,89.480776 66.48137,87.0832 57.906918,112.88841 75.387074,120.47053 c 7.516153,3.26018 18.654548,1.28941 26.722906,1.28941 19.40218,0 38.80636,0.0829 58.20834,-0.002 20.21755,-0.0882 29.76115,-26.36552 13.22858,-38.796664 -3.47187,-2.610564 -7.3835,-3.819422 -11.64108,-4.328636 -1.51201,-26.095322 -36.98681,-36.483616 -50.39909,-12.7 -1.80529,3.201266 -2.92961,6.668424 -3.31133,10.31875 z" id="cloud"></path></g></svg></svg></g></g></svg>